:FULLY-SPECIFIED
:FORCE-ALL-JOINTS-BE-3DOF
:DEGREES
1
root -2.95645 16.8291 -36.2757 3.79203 -0.409345 -2.77144
lfemur -18.1857 -3.85478 -7.37129
ltibia 37.6337 0 0
lfoot -17.8071 6.78532 0
ltoes -26.1578 0 0
rfemur -19.1521 0.15077 14.7318
rtibia 40.3652 0 0
rfoot -23.1652 -2.86285 0
rtoes -21.0274 0 0
lowerback 7.02591 2.55716 -1.97249
upperback -3.14202 3.31583 1.27229
thorax -7.43554 1.75645 1.99661
lowerneck -4.68188 -4.04088 -6.84108
upperneck 4.69893 -5.30737 6.47589
head 2.76948 -2.5844 3.14763
lclavicle 1.91563e-015 -9.24349e-015 0
lhumerus -27.0689 -5.33108 89.6453
lradius 25.7364 0 0
lwrist -30.6252 0 0
lhand -28.8405 29.9909 0
lfingers 7.12502 0 0
lthumb -2.19771 59.9594 0
rclavicle 1.91563e-015 -9.24349e-015 0
rhumerus -32.8355 4.71181 -81.727
rradius 32.9783 0 0
rwrist 3.84135 0 0
rhand -24.1523 -25.0894 0
rfingers 7.12502 0 0
rthumb 2.33029 -55.0564 0
2
root -2.95809 16.8272 -36.279 3.85503 -0.450609 -2.79016
lfemur -18.2196 -3.7089 -7.39377
ltibia 37.5901 0 0
lfoot -17.7927 7.00405 0
ltoes -26.3351 0 0
rfemur -19.2013 0.123694 14.7594
rtibia 40.3073 0 0
rfoot -23.0809 -2.67075 0
rtoes -20.627 0 0
lowerback 6.93277 2.55275 -1.94772
upperback -3.13962 3.31488 1.27769
thorax -7.3778 1.75462 1.99137
lowerneck -4.68193 -4.03118 -6.84482
upperneck 4.70594 -5.29472 6.48136
head 2.77121 -2.57804 3.15088
lclavicle 4.94743e-015 -9.15383e-015 0
lhumerus -27.0276 -5.33726 89.6501
lradius 25.7684 0 0
lwrist -30.5808 0 0
lhand -28.8317 29.9924 0
lfingers 7.12502 0 0
lthumb -2.18921 59.9609 0
rclavicle 4.94743e-015 -9.15383e-015 0
rhumerus -32.7709 4.68866 -81.7117
rradius 32.9241 0 0
rwrist 3.85664 0 0
rhand -24.1035 -25.1984 0
rfingers 7.12502 0 0
rthumb 2.37742 -55.1648 0
3
root -2.95973 16.8253 -36.2824 3.90242 -0.49244 -2.80554
lfemur -18.2454 -3.53885 -7.42085
ltibia 37.5582 0 0
lfoot -17.7839 7.19656 0
ltoes -26.4441 0 0
rfemur -19.246 0.0803367 14.7831
rtibia 40.2676 0 0
rfoot -23.0015 -2.46515 0
rtoes -20.1787 0 0
lowerback 6.86509 2.54751 -1.92489
upperback -3.13425 3.31211 1.28303
thorax -7.33162 1.752 1.9866
lowerneck -4.67868 -4.02057 -6.84796
upperneck 4.7105 -5.28097 6.48664
head 2.77138 -2.57117 3.15404
lclavicle 7.55366e-015 -9.12575e-015 0
lhumerus -26.9853 -5.34175 89.6577
lradius 25.7982 0 0
lwrist -30.5358 0 0
lhand -28.8236 29.9925 0
lfingers 7.12502 0 0
lthumb -2.18142 59.9612 0
rclavicle 7.55366e-015 -9.12575e-015 0
rhumerus -32.7068 4.65811 -81.6916
rradius 32.8608 0 0
rwrist 3.86823 0 0
rhand -24.0489 -25.3083 0
rfingers 7.12502 0 0
rthumb 2.43014 -55.274 0
4
root -2.96137 16.8234 -36.2857 3.93514 -0.534645 -2.81776
lfemur -18.2635 -3.34699 -7.45212
ltibia 37.5373 0 0
lfoot -17.7805 7.364 0
ltoes -26.4891 0 0
rfemur -19.2863 0.0220196 14.8032
rtibia 40.2448 0 0
rfoot -22.927 -2.24778 0
rtoes -19.6875 0 0
lowerback 6.82129 2.5415 -1.90393
upperback -3.12614 3.30768 1.28828
thorax -7.29636 1.74865 1.98227
lowerneck -4.67237 -4.00916 -6.85053
upperneck 4.71276 -5.26626 6.49172
head 2.77011 -2.56388 3.15709
lclavicle 9.75515e-015 -9.15496e-015 0
lhumerus -26.9425 -5.34466 89.6679
lradius 25.8258 0 0
lwrist -30.4906 0 0
lhand -28.8163 29.9915 0
lfingers 7.12502 0 0
lthumb -2.1743 59.9602 0
rclavicle 9.75515e-015 -9.15496e-015 0
rhumerus -32.6433 4.6208 -81.6671
rradius 32.7892 0 0
rwrist 3.87634 0 0
rhand -23.9891 -25.4187 0
rfingers 7.12502 0 0
rthumb 2.48787 -55.3837 0
5
root -2.96301 16.8215 -36.289 3.95413 -0.57703 -2.82702
lfemur -18.2745 -3.13566 -7.48714
ltibia 37.5268 0 0
lfoot -17.7819 7.50756 0
ltoes -26.4748 0 0
rfemur -19.3224 -0.0499378 14.8198
rtibia 40.2379 0 0
rfoot -22.8574 -2.02035 0
rtoes -19.1584 0 0
lowerback 6.79982 2.53481 -1.8848
upperback -3.11552 3.30171 1.29344
thorax -7.27136 1.74466 1.97838
lowerneck -4.66326 -3.99704 -6.85257
upperneck 4.71287 -5.25071 6.4966
head 2.7675 -2.5562 3.16004
lclavicle 1.15727e-014 -9.23716e-015 0
lhumerus -26.8992 -5.34609 89.6805
lradius 25.8512 0 0
lwrist -30.4453 0 0
lhand -28.8096 29.9893 0
lfingers 7.12502 0 0
lthumb -2.16785 59.9581 0
rclavicle 1.15727e-014 -9.23716e-015 0
rhumerus -32.5806 4.57737 -81.6387
rradius 32.7102 0 0
rwrist 3.88119 0 0
rhand -23.9248 -25.5292 0
rfingers 7.12502 0 0
rthumb 2.55 -55.4934 0
6
root -2.96465 16.8196 -36.2924 3.96032 -0.619401 -2.83348
lfemur -18.2789 -2.90721 -7.52548
ltibia 37.5258 0 0
lfoot -17.788 7.62839 0
ltoes -26.4055 0 0
rfemur -19.3546 -0.134215 14.8332
rtibia 40.2457 0 0
rfoot -22.7925 -1.78457 0
rtoes -18.5965 0 0
lowerback 6.79911 2.52752 -1.86743
upperback -3.10262 3.29435 1.2985
thorax -7.25597 1.74007 1.9749
lowerneck -4.65158 -3.98433 -6.85411
upperneck 4.71101 -5.23445 6.50128
head 2.76366 -2.54821 3.16287
lclavicle 1.30272e-014 -9.36807e-015 0
lhumerus -26.8557 -5.34614 89.6953
lradius 25.8745 0 0
lwrist -30.4001 0 0
lhand -28.8036 29.9861 0
lfingers 7.12502 0 0
lthumb -2.16204 59.955 0
rclavicle 1.30272e-014 -9.36807e-015 0
rhumerus -32.519 4.52846 -81.6069
rradius 32.6246 0 0
rwrist 3.88301 0 0
rhand -23.8565 -25.6393 0
rfingers 7.12502 0 0
rthumb 2.61595 -55.6025 0
7
root -2.96628 16.8177 -36.2957 3.95467 -0.661566 -2.83733
lfemur -18.2771 -2.66397 -7.56673
ltibia 37.5337 0 0
lfoot -17.7982 7.72766 0
ltoes -26.2858 0 0
rfemur -19.3828 -0.229493 14.8435
rtibia 40.267 0 0
rfoot -22.7323 -1.54215 0
rtoes -18.0069 0 0
lowerback 6.81758 2.5197 -1.85178
upperback -3.08768 3.28573 1.30343
thorax -7.24951 1.73495 1.97182
lowerneck -4.6376 -3.97113 -6.85517
upperneck 4.70733 -5.21761 6.50574
head 2.75872 -2.53996 3.16558
lclavicle 1.41394e-014 -9.5434e-015 0
lhumerus -26.8123 -5.34492 89.712
lradius 25.8958 0 0
lwrist -30.3552 0 0
lhand -28.7982 29.982 0
lfingers 7.12502 0 0
lthumb -2.15684 59.9509 0
rclavicle 1.41394e-014 -9.5434e-015 0
rhumerus -32.4586 4.47472 -81.5719
rradius 32.5335 0 0
rwrist 3.88202 0 0
rhand -23.7849 -25.7484 0
rfingers 7.12502 0 0
rthumb 2.68513 -55.7107 0
8
root -2.96792 16.8158 -36.299 3.9381 -0.70333 -2.83876
lfemur -18.2697 -2.40831 -7.61044
ltibia 37.5498 0 0
lfoot -17.8123 7.80653 0
ltoes -26.1201 0 0
rfemur -19.4073 -0.33445 14.8509
rtibia 40.3007 0 0
rfoot -22.6768 -1.29482 0
rtoes -17.3947 0 0
lowerback 6.85366 2.51144 -1.83779
upperback -3.07093 3.27601 1.30822
thorax -7.25135 1.72938 1.96913
lowerneck -4.62154 -3.95754 -6.85579
upperneck 4.70198 -5.20032 6.50999
head 2.75276 -2.53152 3.16817
lclavicle 1.49302e-014 -9.75885e-015 0
lhumerus -26.769 -5.34254 89.7303
lradius 25.9151 0 0
lwrist -30.3108 0 0
lhand -28.7934 29.977 0
lfingers 7.12502 0 0
lthumb -2.15224 59.946 0
rclavicle 1.49302e-014 -9.75885e-015 0
rhumerus -32.3996 4.41677 -81.5342
rradius 32.4376 0 0
rwrist 3.87844 0 0
rhand -23.7105 -25.8561 0
rfingers 7.12502 0 0
rthumb 2.75693 -55.8174 0
9
root -2.96956 16.8139 -36.3024 3.91157 -0.744501 -2.83794
lfemur -18.257 -2.14255 -7.6562
ltibia 37.5732 0 0
lfoot -17.8298 7.86619 0
ltoes -25.9129 0 0
rfemur -19.4283 -0.447768 14.8556
rtibia 40.3456 0 0
rfoot -22.6258 -1.04428 0
rtoes -16.7648 0 0
lowerback 6.90579 2.50281 -1.82541
upperback -3.05259 3.2653 1.31285
thorax -7.26081 1.72342 1.96681
lowerneck -4.60368 -3.94367 -6.856
upperneck 4.69513 -5.1827 6.51401
head 2.74591 -2.52295 3.17064
lclavicle 1.54203e-014 -1.00101e-014 0
lhumerus -26.7262 -5.33909 89.7502
lradius 25.9324 0 0
lwrist -30.2671 0 0
lhand -28.7893 29.9713 0
lfingers 7.12502 0 0
lthumb -2.14821 59.9403 0
rclavicle 1.54203e-014 -1.00101e-014 0
rhumerus -32.3423 4.35526 -81.4942
rradius 32.3379 0 0
rwrist 3.87248 0 0
rhand -23.6341 -25.962 0
rfingers 7.12502 0 0
rthumb 2.83079 -55.9223 0
10
root -2.9712 16.812 -36.3057 3.876 -0.784884 -2.83506
lfemur -18.2396 -1.86906 -7.70357
ltibia 37.6034 0 0
lfoot -17.8503 7.90778 0
ltoes -25.6687 0 0
rfemur -19.4459 -0.568125 14.8577
rtibia 40.4007 0 0
rfoot -22.5794 -0.792252 0
rtoes -16.1224 0 0
lowerback 6.9724 2.4939 -1.81457
upperback -3.03291 3.25376 1.31732
thorax -7.27726 1.71713 1.96484
lowerneck -4.58424 -3.92961 -6.85583
upperneck 4.68693 -5.16489 6.5178
head 2.73828 -2.5143 3.17298
lclavicle 1.56307e-014 -1.0293e-014 0
lhumerus -26.684 -5.33468 89.7712
lradius 25.9479 0 0
lwrist -30.2243 0 0
lhand -28.7857 29.965 0
lfingers 7.12502 0 0
lthumb -2.14473 59.934 0
rclavicle 1.56307e-014 -1.0293e-014 0
rhumerus -32.2869 4.29083 -81.4524
rradius 32.2352 0 0
rwrist 3.86438 0 0
rhand -23.5561 -26.0656 0
rfingers 7.12502 0 0
rthumb 2.90609 -56.0248 0
11
root -2.97284 16.8101 -36.309 3.83235 -0.824286 -2.83029
lfemur -18.218 -1.59017 -7.75212
ltibia 37.6396 0 0
lfoot -17.8736 7.93248 0
ltoes -25.392 0 0
rfemur -19.4602 -0.694202 14.8575
rtibia 40.4646 0 0
rfoot -22.5374 -0.540451 0
rtoes -15.4726 0 0
lowerback 7.05193 2.48478 -1.80524
upperback -3.0121 3.24153 1.32161
thorax -7.30002 1.71058 1.96322
lowerneck -4.56348 -3.91547 -6.85532
upperneck 4.67755 -5.14701 6.52136
head 2.72998 -2.50564 3.17518
lclavicle 1.55821e-014 -1.0603e-014 0
lhumerus -26.6427 -5.32942 89.7933
lradius 25.9615 0 0
lwrist -30.1826 0 0
lhand -28.7826 29.958 0
lfingers 7.12502 0 0
lthumb -2.14179 59.9271 0
rclavicle 1.55821e-014 -1.0603e-014 0
rhumerus -32.2335 4.22412 -81.4091
rradius 32.1304 0 0
rwrist 3.85435 0 0
rhand -23.4772 -26.1663 0
rfingers 7.12502 0 0
rthumb 2.98224 -56.1245 0
12
root -2.97448 16.8082 -36.3124 3.78155 -0.862513 -2.82382
lfemur -18.1926 -1.30823 -7.80143
ltibia 37.681 0 0
lfoot -17.8991 7.94146 0
ltoes -25.0872 0 0
rfemur -19.4714 -0.824678 14.8552
rtibia 40.5364 0 0
rfoot -22.4998 -0.29059 0
rtoes -14.8203 0 0
lowerback 7.14279 2.47554 -1.79735
upperback -2.99041 3.22873 1.32569
thorax -7.32844 1.70383 1.96191
lowerneck -4.54164 -3.90136 -6.85448
upperneck 4.66713 -5.12919 6.52468
head 2.72111 -2.49702 3.17724
lclavicle 1.52953e-014 -1.09361e-014 0
lhumerus -26.6025 -5.3234 89.8161
lradius 25.9733 0 0
lwrist -30.1423 0 0
lhand -28.7801 29.9506 0
lfingers 7.12502 0 0
lthumb -2.13935 59.9198 0
rclavicle 1.52953e-014 -1.09361e-014 0
rhumerus -32.1824 4.15577 -81.3648
rradius 32.0245 0 0
rwrist 3.84261 0 0
rhand -23.3981 -26.2638 0
rfingers 7.12502 0 0
rthumb 3.05867 -56.2209 0
13
root -2.97612 16.8063 -36.3157 3.72454 -0.899373 -2.81584
lfemur -18.164 -1.02559 -7.85108
ltibia 37.7269 0 0
lfoot -17.9267 7.93588 0
ltoes -24.7589 0 0
rfemur -19.4798 -0.958234 14.8509
rtibia 40.6148 0 0
rfoot -22.4665 -0.0443841 0
rtoes -14.1707 0 0
lowerback 7.24342 2.46624 -1.79085
upperback -2.96807 3.21552 1.32957
thorax -7.36187 1.69695 1.96091
lowerneck -4.51898 -3.88738 -6.85336
upperneck 4.65585 -5.11156 6.52774
head 2.71179 -2.48852 3.17916
lclavicle 1.47913e-014 -1.12878e-014 0
lhumerus -26.5636 -5.31674 89.8394
lradius 25.9834 0 0
lwrist -30.1034 0 0
lhand -28.7781 29.9429 0
lfingers 7.12502 0 0
lthumb -2.1374 59.912 0
rclavicle 1.47913e-014 -1.12878e-014 0
rhumerus -32.1337 4.08641 -81.3199
rradius 31.9182 0 0
rwrist 3.8294 0 0
rhand -23.3193 -26.3576 0
rfingers 7.12502 0 0
rthumb 3.13477 -56.3135 0
14
root -2.97776 16.8044 -36.319 3.66226 -0.934672 -2.80652
lfemur -18.1326 -0.744589 -7.90062
ltibia 37.7767 0 0
lfoot -17.9558 7.9169 0
ltoes -24.4114 0 0
rfemur -19.4853 -1.09355 14.8448
rtibia 40.6988 0 0
rfoot -22.4375 0.196452 0
rtoes -13.5288 0 0
lowerback 7.35226 2.45698 -1.78568
upperback -2.9453 3.20203 1.33321
thorax -7.39965 1.69001 1.96021
lowerneck -4.49574 -3.87362 -6.85199
upperneck 4.64385 -5.09425 6.53056
head 2.70213 -2.48018 3.18093
lclavicle 1.40907e-014 -1.16539e-014 0
lhumerus -26.5262 -5.30953 89.8631
lradius 25.9918 0 0
lwrist -30.0662 0 0
lhand -28.7766 29.9348 0
lfingers 7.12502 0 0
lthumb -2.13591 59.904 0
rclavicle 1.40907e-014 -1.16539e-014 0
rhumerus -32.0877 4.01669 -81.2747
rradius 31.8125 0 0
rwrist 3.81491 0 0
rhand -23.2414 -26.4471 0
rfingers 7.12502 0 0
rthumb 3.20995 -56.402 0
